{"title":"Formula.1.2014x10.Germany.Race.SkyF1HD.720p","uid":10598753,"size":7962950603,"categoryP":"video","categoryS":"hd___tv_shows","magnet":"?xt=urn:btih:d0fd43dc3ca19c6700d6770671f248b9aa6d8358&amp;dn=Formula.1.2014x10.Germany.Race.SkyF1HD.720p&amp;tr=udp%3A%2F%2Ftracker.openbittorrent.com%3A80&amp;tr=udp%3A%2F%2Fopen.demonii.com%3A1337&amp;tr=udp%3A%2F%2Ftracker.coppersurfer.tk%3A6969&amp;tr=udp%3A%2F%2Fexodus.desync.com%3A6969","seeders":5,"leechers":0,"uploader":"smcgill1969","files":-1,"time":1405888995,"description":"The 2014 German Grand Prix from the Hockenheimring. \n\nNB: My SkyHD box crashed in a big way at the begining of the podium presentation so there's aprox 3-4mins missing at that point where I had to physically pull the plug on it and re-boot the damn thing! :(\n \n\n01.Pre-Qualifying.Buildup.720p.mp4 [1h25m - 2.20GB]\n02.Qualifying.Session.720p.mp4 [1h50m - 3.37GB] \n03.Post-Qualifying.Analysis.720p.mp4 [1h10m - 1.75GB]\n\n~~~\nVideo\nID                                       : 1\nFormat                                   : AVC\nFormat/Info                              : Advanced Video Codec\nFormat profile                           : &lt;a class=&quot;__cf_email__&quot; href=&quot;/cdn-cgi/l/email-protection&quot; data-cfemail=&quot;0d45646a654d413e233c&quot;&gt;[email&amp;#160;protected]&lt;/a&gt;&lt;script cf-hash='f9e31' type=&quot;text/javascript&quot;&gt;\n/* &lt;![CDATA[ */!function(){try{var t=&quot;currentScript&quot;in document?document.currentScript:function(){for(var t=document.getElementsByTagName(&quot;script&quot;),e=t.length;e--;)if(t[e].getAttribute(&quot;cf-hash&quot;))return t[e]}();if(t&amp;&amp;t.previousSibling){var e,r,n,i,c=t.previousSibling,a=c.getAttribute(&quot;data-cfemail&quot;);if(a){for(e=&quot;&quot;,r=parseInt(a.substr(0,2),16),n=2;a.length-n;n+=2)i=parseInt(a.substr(n,2),16)^r,e+=String.fromCharCode(i);e=document.createTextNode(e),c.parentNode.replaceChild(e,c)}}}catch(u){}}();/* ]]&gt; */&lt;/script&gt;\nFormat settings, CABAC                   : Yes\nFormat settings, ReFrames                : 4 frames\nCodec ID                                 : avc1\nCodec ID/Info                            : Advanced Video Coding\nDuration                                 : 1h 11mn\nBit rate                                 : 3 138 Kbps\nWidth                                    : 1 280 pixels\nHeight                                   : 720 pixels\nDisplay aspect ratio                     : 16:9\nFrame rate mode                          : Constant\nFrame rate                               : 25.000 fps\nColor space                              : YUV\nChroma subsampling                       : 4:2:0\nBit depth                                : 8 bits\nScan type                                : Progressive\nBits/(Pixel*Frame)                       : 0.136\nStream size                              : 1.58 GiB (91%)\nWriting library                          : x264 core 130 r2273 b3065e6\nEncoding settings                        : cabac=1 / ref=1 / deblock=1:0:0 / analyse=0x3:0x113 / me=hex / subme=2 / psy=1 / psy_rd=1.00:0.00 / mixed_ref=0 / me_range=16 / chroma_me=1 / trellis=0 / 8x8dct=1 / cqm=0 / deadzone=21,11 / fast_pskip=1 / chroma_qp_offset=0 / threads=12 / lookahead_threads=4 / sliced_threads=0 / nr=0 / decimate=1 / interlaced=0 / bluray_compat=0 / constrained_intra=0 / bframes=3 / b_pyramid=2 / b_adapt=1 / b_bias=0 / direct=1 / weightb=1 / open_gop=0 / weightp=1 / keyint=250 / keyint_min=25 / scenecut=40 / intra_refresh=0 / rc_lookahead=10 / rc=crf / mbtree=1 / crf=20.0 / qcomp=0.60 / qpmin=0 / qpmax=69 / qpstep=4 / vbv_maxrate=17500 / vbv_bufsize=17500 / crf_max=0.0 / nal_hrd=none / ip_ratio=1.40 / aq=1:1.00\nEncoded date                             : UTC 2014-07-20 16:44:45\nTagged date                              : UTC 2014-07-20 17:08:57\nColor primaries                          : BT.709\nTransfer characteristics                 : BT.709\nMatrix coefficients                      : BT.709\n\nAudio\nID                                       : 2\nFormat                                   : AAC\nFormat/Info                              : Advanced Audio Codec\nFormat profile                           : LC\nCodec ID                                 : 40\nDuration                                 : 1h 11mn\nBit rate mode                            : Variable\nBit rate                                 : 320 Kbps\nMaximum bit rate                         : 590 Kbps\nChannel(s)                               : 6 channels\nChannel positions                        : Front: L C R, Side: L R, LFE\nSampling rate                            : 48.0 KHz\nCompression mode                         : Lossy\nStream size                              : 164 MiB (9%)\nEncoded date                             : UTC 2014-07-20 16:44:45\nTagged date                              : UTC 2014-07-20 17:08:56","torrent":{"xt":"urn:btih:d0fd43dc3ca19c6700d6770671f248b9aa6d8358","amp;dn":"Formula.1.2014x10.Germany.Race.SkyF1HD.720p","amp;tr":["udp%3A%2F%2Ftracker.openbittorrent.com%3A80","udp%3A%2F%2Fopen.demonii.com%3A1337","udp%3A%2F%2Ftracker.coppersurfer.tk%3A6969","udp%3A%2F%2Fexodus.desync.com%3A6969"],"infoHash":"d0fd43dc3ca19c6700d6770671f248b9aa6d8358","infoHashBuffer":{"type":"Buffer","data":[208,253,67,220,60,161,156,103,0,214,119,6,113,242,72,185,170,109,131,88]},"announce":[],"urlList":[]}}